<?xml version="1.0" encoding="UTF-8"?>
<svg width="513px" height="315px" viewBox="0 0 513 315" version="1.1" xmlns="http://www.w3.org/2000/svg" xmlns:xlink="http://www.w3.org/1999/xlink">
    <!-- Generator: Sketch 59.1 (86144) - https://sketch.com -->
    <title>Group 36</title>
    <desc>Created with Sketch.</desc>
    <defs>
        <linearGradient x1="-0.00163593829%" y1="50.0071467%" x2="100%" y2="50.0071467%" id="linearGradient-1">
            <stop stop-color="#808080" stop-opacity="0.25" offset="0%"></stop>
            <stop stop-color="#808080" stop-opacity="0.12" offset="54%"></stop>
            <stop stop-color="#808080" stop-opacity="0.1" offset="100%"></stop>
        </linearGradient>
    </defs>
    <g id="Page-1" stroke="none" stroke-width="1" fill="none" fill-rule="evenodd">
        <g id="Group-36">
            <g id="Group-29">
                <g id="undraw_experts3_3njd">
                    <g id="Group-52" transform="translate(359.000000, 0.000000)">
                        <g id="Group" fill="#EBF1FF" fill-rule="nonzero">
                            <rect id="Rectangle" x="0.7" y="0.9" width="153" height="157"></rect>
                        </g>
                        <g id="Group-51" transform="translate(37.253870, 25.072286)">
                            <g id="Group-50" transform="translate(11.846130, 0.000000)">
                                <rect id="Rectangle" fill="#BA6E58" fill-rule="nonzero" x="14.3" y="44.8277136" width="20.8" height="31.2"></rect>
                                <path d="M14.3,49.7932146 C16.4836243,50.5165023 18.7228176,51.3277303 21.17059,51.3277303 C26.3162064,51.3283607 31.2792854,49.547826 35.1,46.3304533 L35.1,46.1277136 L14.3,46.1277136 L14.3,49.7932146 Z" id="Path" fill="#954F3B" fill-rule="nonzero" opacity="0.679464286"></path>
                                <ellipse id="Oval" fill="#BA6E58" fill-rule="nonzero" cx="24.7" cy="29.2277136" rx="18.2" ry="20.8"></ellipse>
                                <path d="M21.45,29.2277136 C24.2006376,34.8588707 23.9839709,37.4374211 20.8,36.9633649" id="Path-25" stroke="#7F3F2D" stroke-width="1.3" transform="translate(22.081172, 33.123146) scale(-1, 1) translate(-22.081172, -33.123146) "></path>
                                <ellipse id="Oval" fill="#2F2E41" cx="29.9" cy="28.5777136" rx="1.3" ry="1.95"></ellipse>
                                <ellipse id="Oval" fill="#2F2E41" cx="16.9" cy="28.5777136" rx="1.3" ry="1.95"></ellipse>
                                <ellipse id="Oval" fill="#2E2C45" fill-rule="nonzero" cx="16.25" cy="15.5777136" rx="16.25" ry="7.15"></ellipse>
                                <path d="M25.6893222,15.0893652 L41.3958343,25.485622 L41.3958343,38.3277136 C41.3958343,38.3277136 55.328344,5.34768301 32.5,0.816165082 C9.671656,-3.71535285 5.19992876,12.1006602 5.19992876,12.1006602 C5.19992876,12.1006602 12.0279848,18.0605582 25.6893222,15.0893652 Z" id="Path" fill="#2E2C45" fill-rule="nonzero"></path>
                                <line x1="26" y1="41.8542624" x2="28.6" y2="39.5660674" id="Path-36" stroke="#2E2C45" stroke-width="1.3"></line>
                                <ellipse id="Oval" fill="#BA6E58" fill-rule="nonzero" cx="42.25" cy="34.4277136" rx="1.95" ry="3.9"></ellipse>
                            </g>
                            <g id="Group-49" transform="translate(0.000000, 52.627714)">
                                <path d="M26.4427366,1.3 C26.4427366,1.3 3.46213938,15.0759203 1.16644027,25.4078605 C-1.12925883,35.7398007 1.16644027,79.4500409 1.16644027,79.4500409 L78.1461296,80.6 L77.1664739,30.5797278 C77.0552032,24.5271712 74.5766775,18.7587562 70.261672,14.5097866 C64.5135719,8.86614115 55.8206033,1.97228378 47.1217332,1.3 L36.7822349,20.8198185 L26.4427366,1.3 Z" id="Path" fill="#6C6CFD" fill-rule="nonzero"></path>
                                <polygon id="Path" fill="#FFFFFF" fill-rule="nonzero" points="48.2461296 1.3 33.7558942 37.7 26.1461296 1.60732262"></polygon>
                                <polygon id="Path" fill="#FFFFFF" fill-rule="nonzero" points="26.1461296 0 26.1461296 2.6 48.2042848 2.6 48.2461296 0"></polygon>
                                <polygon id="Path" stroke="#384B62" stroke-width="1.3" stroke-linejoin="round" fill-rule="nonzero" points="24.8461296 52.5845538 32.1929512 63.7 41.7461296 52.5845538 36.5461296 6.91277691"></polygon>
                                <rect id="Rectangle" stroke="#384B62" fill="#FFFFFF" fill-rule="nonzero" stroke-linejoin="round" x="33.9461296" y="1.3" width="5.2" height="5.2"></rect>
                                <path d="M3.76780097,19.9979811 C1.80794352,25.2509456 0.600719717,32.5193965 0.146129557,41.8033339 C-0.308460603,51.0872714 0.29757765,62.8555463 1.96424432,77.1081587" id="Path-40" stroke="#384B62" stroke-linecap="round"></path>
                            </g>
                        </g>
                    </g>
                    <g id="Group" opacity="0.5" transform="translate(433.100000, 28.500000)" fill="url(#linearGradient-1)" fill-rule="nonzero">
                        <path d="M0.237372263,0.660045455 L0.284437956,0.724454545 L0.237372263,0.660045455 Z M0.508,0.987946281 L0.572715328,1.05821074 L0.508,0.987946281 Z M0.819810219,1.30999174 L0.896291971,1.38611157 L0.819810219,1.30999174 Z M3.49078832,3.06660331 L3.57315328,3.10759091 L3.57315328,3.10759091 L3.49078832,3.06660331 Z M1.17280292,1.6086157 L1.26693431,1.69059091 L1.17280292,1.6086157 Z M1.56109489,1.91895041 L1.67287591,2.00092562 L1.56109489,1.91895041 Z M1.99056934,2.21757438 L2.12,2.30540496 L1.99056934,2.21757438 Z M2.45534307,2.51034298 L2.60830657,2.59817355 L2.45534307,2.51034298 Z M2.95541606,2.79140083 L3.1260292,2.88508678 L2.95541606,2.79140083 Z" id="Shape"></path>
                    </g>
                    <circle id="Oval" fill="#FFFF00" fill-rule="nonzero" cx="437.3" cy="40.2" r="1"></circle>
                    <rect id="Rectangle" fill="#EBF1FF" fill-rule="nonzero" x="359" y="167" width="154" height="7.8"></rect>
                    <rect id="Rectangle" fill="#EBF1FF" fill-rule="nonzero" x="360" y="185" width="122.2" height="7.8"></rect>
                    <g id="Group" transform="translate(1.000000, 59.700000)" fill="#EBF1FF" fill-rule="nonzero">
                        <rect id="Rectangle" x="0" y="0.3" width="182" height="156"></rect>
                    </g>
                    <rect id="Rectangle" fill="#FCA085" fill-rule="nonzero" x="78.5" y="120.8" width="20.8" height="31.2"></rect>
                    <path d="M78.5,126.001369 C80.6836243,126.724657 83.8522276,128.849162 86.3,128.849162 C91.44572,128.850314 95.4795827,127.214916 99.3,123.997091 L99.3,121.650722 L78.5,122.1 L78.5,126.001369 Z" id="Path" fill="#D77D6A" fill-rule="nonzero"></path>
                    <path d="M88.25,127.3 C97.9425974,127.3 105.8,117.987523 105.8,106.5 C105.8,95.0124772 103.650691,86.3571985 88.25,85.7 C72.8493092,85.0428015 71.5945491,97.6124772 71.5945491,109.1 C71.5945491,120.587523 78.5574026,127.3 88.25,127.3 Z" id="Oval" fill="#FCA085" fill-rule="nonzero"></path>
                    <g id="Group-28" transform="translate(86.300000, 109.100000)" stroke="#D77D6A" stroke-linecap="round">
                        <path d="M0.723624041,-9.09494702e-13 C3.19911482,4.38277406 2.95790681,6.35612292 0,5.92004657" id="Path-25"></path>
                    </g>
                    <circle id="Oval" fill="#FFFF00" fill-rule="nonzero" cx="65.5" cy="100" r="1"></circle>
                    <path d="M87.5076991,94.3712891 C96.4730333,92.5795115 101.787365,95.7477703 103.450695,103.876066 L103.450695,116.9 C103.450695,116.9 121.549424,86.0183095 88.9,81.6330501 C60.3,77.7916832 65.7610261,91.5860075 67.9737336,94.3712891 C70.1864411,97.1565708 74.0596978,97.0589556 87.5076991,94.3712891 Z" id="Path" fill="#2E2C45" fill-rule="nonzero"></path>
                    <rect id="Rectangle" fill="#FCA085" fill-rule="nonzero" x="114.9" y="184.5" width="11.7" height="31.2"></rect>
                    <polygon id="Path" fill="#FFFFFF" fill-rule="nonzero" points="113.6 175.398476 113.6 184.5 130.5 184.5 129.469661 174.1"></polygon>
                    <polygon id="Path" fill="#FCA085" fill-rule="nonzero" points="48.6 216.438632 59.3380479 216.438632 60.3 186.787922 48.6 184.5"></polygon>
                    <path d="M84.9505185,141.089276 L78.5,132.543162 C78.5,132.543162 48.6,142.331233 48.6,174.662936 L57.3789266,184.610255 L57.3789266,217 L111.489364,216.438632 C111.489364,216.438632 111.304938,183.368298 110.052486,173.420979 L113.815723,175.910724 L128.862791,175.910724 C128.862791,175.910724 135.662279,141.308459 99.3,130.119183 L84.9505185,141.089276 Z" id="Path" fill="#FFFFFF" fill-rule="nonzero"></path>
                    <polygon id="Path" fill="#FFFFFF" fill-rule="nonzero" points="46 184.082596 57.4914634 189.7 57.7 184.082596 49.5067073 174.1"></polygon>
                    <polygon id="Path" fill="#000000" fill-rule="nonzero" opacity="0.05" points="115.121878 185.8 126.47012 185.8 126.6 184.5 114.9 184.5"></polygon>
                    <ellipse id="Oval" fill="#FCA085" fill-rule="nonzero" cx="104.5" cy="111.7" rx="2.6" ry="3.9"></ellipse>
                    <rect id="Rectangle" fill="#6C6CFD" fill-rule="nonzero" x="0" y="226" width="179.4" height="7.8"></rect>
                    <rect id="Rectangle" fill="#6C6CFD" fill-rule="nonzero" x="0" y="246" width="122.2" height="7.8"></rect>
                    <g id="Group" transform="translate(193.200000, 92.600000)" fill="#EBF1FF" fill-rule="nonzero">
                        <rect id="Rectangle" x="0.8" y="0.4" width="153" height="179"></rect>
                    </g>
                    <path d="M247.136297,218.602375 C247.136297,218.602375 233.575195,212.651639 237.528601,253.547619 C238.602164,264.450668 235.994166,275.400535 230.133203,284.597729 L229.3,285.9 L241.907228,285.9 L251.4,275.680385 L247.136297,218.602375 Z" id="Path" fill="#FFFFFF" fill-rule="nonzero"></path>
                    <path d="M316.326492,145.66821 C316.326492,145.66821 316.326492,145.610206 316.326492,145.5 L306.705043,146.625265 L306.775017,146.857278 L315.119437,190.74261 L286.5,207.348968 L287.666236,228.7 C289.120941,227.794673 290.201092,227.121003 290.906689,226.678987 C315.187344,211.468579 328.018448,201.862123 329.4,197.859621 C330.841774,193.682649 326.483938,176.285512 316.326492,145.66821 Z" id="Path" fill="#FFFFFF" fill-rule="nonzero"></path>
                    <ellipse id="Oval" fill="#2E2C45" fill-rule="nonzero" cx="267.65" cy="187.1" rx="24.05" ry="29.9"></ellipse>
                    <rect id="Rectangle" fill="#FAC5B5" fill-rule="nonzero" x="261.8" y="196.2" width="18.2" height="26"></rect>
                    <path d="M266.801232,218.578846 L262.005346,211.331006 L246.650302,218.578846 L247.617688,230.569975 C247.617688,230.569975 242.393807,239.843902 246.650302,250.523686 C245.477714,266.224385 242.3,286.804234 242.3,286.804234 L295.6,287.2 C295.6,287.2 286.008228,271.706044 290.804114,225.808965 L289.631526,206.481392 L278.843714,205.3 L266.801232,218.578846 Z" id="Path" fill="#FFFFFF" fill-rule="nonzero"></path>
                    <path d="M261.8,201.428606 C263.688928,202.146944 264.509431,202.7 266.628571,202.7 C271.087926,202.700799 275.38909,200.920472 278.7,197.703423 L280,196.2 L261.8,197.5 L261.8,201.428606 Z" id="Path" fill="#E08063" fill-rule="nonzero"></path>
                    <path d="M267,201.4 C277.051582,201.4 285.2,193.251582 285.2,183.2 C285.2,173.148418 277.051582,165 267,165 C256.948418,165 253.295311,173.926626 253.295311,183.978209 C253.295311,194.029791 256.948418,201.4 267,201.4 Z" id="Oval" fill="#FAC5B5" fill-rule="nonzero"></path>
                    <path d="M266.387656,184.990865 C269.138294,189.327603 268.921627,191.313429 265.737656,190.948343" id="Path-25" stroke="#F0A48D" stroke-width="1.3" stroke-linecap="round" transform="translate(267.018828, 187.990865) scale(-1, 1) translate(-267.018828, -187.990865) "></path>
                    <ellipse id="Oval" fill="#FAC5B5" fill-rule="nonzero" cx="285.2" cy="185.15" rx="2.6" ry="3.25"></ellipse>
                    <circle id="Oval" fill="#FFFF00" fill-rule="nonzero" cx="251.4" cy="178" r="1"></circle>
                    <polygon id="Rectangle" fill="#2E2C45" fill-rule="nonzero" points="254 165 282.6 163.7 281.992908 178.065 270.9 176.835909 251.4 179.3"></polygon>
                    <ellipse id="Oval" fill="#2F2E41" cx="273.5" cy="183.85" rx="1.3" ry="1.95"></ellipse>
                    <ellipse id="Oval" fill="#2F2E41" cx="261.8" cy="183.85" rx="1.3" ry="1.95"></ellipse>
                    <path d="M310.423148,130.80617 C303.958781,133.292818 306.351923,143.724773 306.813252,145.5 L316.328155,144.210134 C316.45502,142.381717 317.060514,128.259683 310.423148,130.80617 Z" id="Path" fill="#FAC5B5" fill-rule="nonzero"></path>
                    <rect id="Rectangle" fill="#EBF1FF" fill-rule="nonzero" x="193" y="290" width="154" height="7.8"></rect>
                    <rect id="Rectangle" fill="#EBF1FF" fill-rule="nonzero" x="193" y="307" width="122.2" height="7.8"></rect>
                    <path d="M267,194.9 L270.9,194.9 C271.026161,196.167653 270.714428,196.801479 269.964802,196.801479 C269.215177,196.801479 268.226909,196.167653 267,194.9 Z" id="Path-35" stroke="#FFFFFF" stroke-width="1.3" fill="#FFFFFF" stroke-linejoin="round"></path>
                </g>
                <g id="Group-26" transform="translate(251.295311, 205.300000)">
                    <path d="M10.5046887,6.17075196 L7.68593926,16.9 C4.7896415,18.7102608 3.04508288,20.3817112 2.4522634,21.9143513 C1.85944393,23.4469913 1.85944393,26.2858185 2.4522634,30.4308329" id="Path-38" stroke="#2E2C45" stroke-width="1.3" stroke-linejoin="round"></path>
                    <path d="M12.990256,17.229248 C9.93145834,19.0543047 8.05437483,20.799732 7.35900544,22.46553 C6.66363605,24.1313279 6.64540649,26.9262338 7.30431674,30.8502475" id="Path-38" stroke="#2E2C45" stroke-width="1.3" stroke-linejoin="round" transform="translate(9.906847, 24.039748) scale(-1, 1) translate(-9.906847, -24.039748) "></path>
                    <line x1="28.7046887" y1="0" x2="28.7046887" y2="14.8912471" id="Path-39" stroke="#2E2C45" stroke-width="1.3"></line>
                    <circle id="Oval" fill="#2E2C45" cx="2.0546887" cy="31.85" r="1.95"></circle>
                    <circle id="Oval" fill="#2E2C45" cx="12.4546887" cy="31.85" r="1.95"></circle>
                    <circle id="Oval" stroke="#2E2C45" cx="28.7046887" cy="17.7" r="3"></circle>
                </g>
                <path d="M83.7,119.5 C85.1940976,120.366667 86.3173811,120.8 87.0698505,120.8 C87.8223199,120.8 88.9456034,120.520408 90.439701,119.961225" id="Path-37" stroke="#D77D6A" stroke-linecap="round"></path>
                <rect id="Rectangle" stroke="#384B62" x="92.8" y="159.8" width="13" height="9.1" rx="1.3"></rect>
                <rect id="Rectangle" stroke="#FFFFFF" stroke-width="1.3" stroke-linejoin="round" x="90.2" y="102.6" width="9.1" height="6.5"></rect>
                <path d="M92.8,105.2 C93.4586123,106.028878 94.0904788,106.461377 94.6955994,106.497498 C95.3007201,106.533618 95.9688536,106.178717 96.7,105.432795" id="Path-28" stroke="#2E2C45" stroke-width="1.3"></path>
                <path d="M78.5,105.2 C79.1586123,106.028878 79.7904788,106.461377 80.3955994,106.497498 C81.0007201,106.533618 81.6688536,106.178717 82.4,105.432795" id="Path-28" stroke="#2E2C45" stroke-width="1.3"></path>
                <rect id="Rectangle" stroke="#FFFFFF" stroke-width="1.3" stroke-linejoin="round" x="75.9" y="102.6" width="9.1" height="6.5"></rect>
                <line x1="85" y1="106.5" x2="89.5186332" y2="106.5" id="Path-41" stroke="#FFFFFF" stroke-width="1.3"></line>
                <path d="M279.699417,206.021025 L274.6323,222.529248 L273,272 L265.737656,272 C266.765673,259.406706 267.186455,249.964152 267,243.672338 C266.813545,237.380523 266.380212,230.690008 265.7,223.600792 L261.8,211.010729 L267.65,217 C271.53453,212.260061 274.730663,208.916812 277.238398,206.970253 C279.746133,205.023694 280.566472,204.707284 279.699417,206.021025 Z" id="Path-45" fill="#6C6CFD"></path>
            </g>
            <polyline id="Path-42" stroke="#36E0A8" stroke-width="4" stroke-linecap="square" points="151 80.4813816 157.12415 89 168 75"></polyline>
            <path d="M235.463284,272 C236.745357,266.691876 237.479197,260.963972 237.664806,254.816289 C237.94322,245.594764 236.338565,240.997638 236.338565,235.2 C236.338565,229.402362 239.55208,218.647802 248.062621,218.3" id="Path-43" stroke="#384B62"></path>
        </g>
    </g>
</svg>