<?xml version="1.0" encoding="UTF-8"?>
<svg width="421px" height="274px" viewBox="0 0 421 274" version="1.1" xmlns="http://www.w3.org/2000/svg" xmlns:xlink="http://www.w3.org/1999/xlink">
    <!-- Generator: Sketch 59.1 (86144) - https://sketch.com -->
    <title>Group 57</title>
    <desc>Created with Sketch.</desc>
    <g id="Page-1" stroke="none" stroke-width="1" fill="none" fill-rule="evenodd">
        <g id="Group-57" transform="translate(0.000000, 1.000000)">
            <path d="M119.169301,78.0739937 C110.431301,76.6359937 102.258301,72.2189937 94.0113011,68.4839937 C84.9663872,64.3962214 75.5949583,61.0732711 65.9953011,58.5499937 C55.8953011,55.8989937 45.4743011,54.1719937 35.3433011,55.4069937 C25.2123011,56.6419937 15.3283011,61.0849937 8.86630107,69.2079937 C-2.07969893,82.9859937 -1.15669893,103.870994 2.45930107,122.278994 C6.74930107,144.118994 14.1673011,165.708994 26.3093011,184.309994 C34.9393011,197.531994 45.7683011,208.977994 56.5013011,220.340994 C62.5683011,226.751994 68.6923011,233.208994 75.7803011,238.249994 C82.3733011,242.933994 89.6523011,246.291994 96.8803011,249.602994 C104.516191,253.26671 112.334395,256.537646 120.304301,259.402994 C145.739301,268.036994 172.515301,267.766994 198.696301,267.002994 C207.910301,266.735994 217.541301,266.294994 225.271301,261.356994 C231.294301,257.496994 235.587301,251.242994 238.838301,244.573994 C243.093301,235.836994 245.780301,225.409994 242.758301,215.665994 C238.304301,201.291994 223.036301,192.824994 217.958301,178.665994 C211.445301,160.502994 224.096301,141.303994 220.516301,122.396994 C219.027301,114.530994 214.828301,107.421994 210.379301,100.790994 C199.766301,84.9829937 185.659301,70.5829937 166.699301,72.6909937 C150.641301,74.4639937 136.000301,80.8469937 119.169301,78.0739937 Z" id="Path_1372" fill="#EBF1FF" fill-rule="nonzero"></path>
            <g id="Group-46" transform="translate(254.000000, 0.000000)">
                <path d="M0,62.5190897 L0,3 C0,1.34314575 1.34314575,0 3,0 L163,0 C164.656854,0 166,1.34314575 166,3 L166,132 C166,133.656854 164.656854,135 163,135 L3,135 C1.34314575,135 0,133.656854 0,132 L0,91.4173594" id="Path" stroke="#384B62"></path>
                <g id="Group-24" transform="translate(19.000000, 23.000000)">
                    <circle id="Oval" fill="#6C6CFC" fill-rule="nonzero" cx="4" cy="4" r="4"></circle>
                    <circle id="Oval" fill="#6C6CFC" fill-rule="nonzero" cx="24" cy="4" r="4"></circle>
                    <circle id="Oval" fill="#EBF1FF" fill-rule="nonzero" cx="44" cy="4" r="4"></circle>
                    <circle id="Oval" fill="#EBF1FF" fill-rule="nonzero" cx="65" cy="4" r="4"></circle>
                    <circle id="Oval" fill="#EBF1FF" fill-rule="nonzero" cx="85" cy="4" r="4"></circle>
                    <circle id="Oval" fill="#EBF1FF" fill-rule="nonzero" cx="105" cy="4" r="4"></circle>
                    <circle id="Oval" fill="#EBF1FF" fill-rule="nonzero" cx="126" cy="4" r="4"></circle>
                    <circle id="Oval" fill="#6C6CFC" fill-rule="nonzero" cx="4" cy="19" r="4"></circle>
                    <circle id="Oval" fill="#EBF1FF" fill-rule="nonzero" cx="24" cy="19" r="4"></circle>
                    <circle id="Oval" fill="#EBF1FF" fill-rule="nonzero" cx="44" cy="19" r="4"></circle>
                    <circle id="Oval" fill="#EBF1FF" fill-rule="nonzero" cx="65" cy="19" r="4"></circle>
                    <circle id="Oval" fill="#EBF1FF" fill-rule="nonzero" cx="85" cy="19" r="4"></circle>
                    <circle id="Oval" fill="#EBF1FF" fill-rule="nonzero" cx="105" cy="19" r="4"></circle>
                    <circle id="Oval" stroke="#EBF1FF" stroke-width="1.2" fill="#EBF1FF" fill-rule="nonzero" cx="126" cy="19" r="4"></circle>
                    <circle id="Oval" fill="#EBF1FF" fill-rule="nonzero" cx="4" cy="33" r="4"></circle>
                    <circle id="Oval" fill="#EBF1FF" fill-rule="nonzero" cx="24" cy="33" r="4"></circle>
                    <circle id="Oval" fill="#EBF1FF" fill-rule="nonzero" cx="44" cy="33" r="4"></circle>
                    <circle id="Oval" fill="#EBF1FF" fill-rule="nonzero" cx="65" cy="33" r="4"></circle>
                    <circle id="Oval" fill="#EBF1FF" fill-rule="nonzero" cx="85" cy="33" r="4"></circle>
                    <circle id="Oval" fill="#EBF1FF" fill-rule="nonzero" cx="105" cy="33" r="4"></circle>
                    <circle id="Oval" fill="#EBF1FF" fill-rule="nonzero" cx="126" cy="33" r="4"></circle>
                    <circle id="Oval" fill="#EBF1FF" fill-rule="nonzero" cx="4" cy="47" r="4"></circle>
                    <circle id="Oval" fill="#EBF1FF" fill-rule="nonzero" cx="24" cy="47" r="4"></circle>
                    <circle id="Oval" fill="#EBF1FF" fill-rule="nonzero" cx="4" cy="62" r="4"></circle>
                    <circle id="Oval" fill="#EBF1FF" fill-rule="nonzero" cx="24" cy="62" r="4"></circle>
                    <circle id="Oval" fill="#EBF1FF" fill-rule="nonzero" cx="44" cy="62" r="4"></circle>
                    <circle id="Oval" fill="#6C6CFC" fill-rule="nonzero" cx="44" cy="47" r="4"></circle>
                    <circle id="Oval" fill="#6C6CFC" fill-rule="nonzero" cx="65" cy="47" r="4"></circle>
                    <circle id="Oval" fill="#6C6CFC" fill-rule="nonzero" cx="85" cy="47" r="4"></circle>
                    <circle id="Oval" fill="#EBF1FF" fill-rule="nonzero" cx="105" cy="47" r="4"></circle>
                    <circle id="Oval" fill="#36E0A8" fill-rule="nonzero" cx="126" cy="47" r="4"></circle>
                    <rect id="Rectangle" fill="#EBF1FF" x="40" y="82" width="94" height="17" rx="8.5"></rect>
                </g>
            </g>
            <g id="Group-44" transform="translate(51.000000, 73.000000)">
                <g id="undraw_add_document_0hek">
                    <path d="M216.656269,64.5415062 C199.28345,76.8732185 182.084597,84.3791457 165.059709,87.059288 C158.93906,88.0228309 116.436367,92.0123888 109.330091,91.9997045 C100.88997,91.984298 100.88997,85.6745016 109.330091,73.0703154 C116.47749,71.8661264 137.548461,78.5351393 158.294865,75.3913577 C181.893389,71.8153833 205.356871,58.2586788 212.508832,54.3761943 L217.404217,42.1700633 C218.489434,39.4641903 220.907091,37.5356248 223.766373,37.0949714 C226.625655,36.6543181 220.336014,43.8554317 220.891947,43.8059724 C224.17142,43.5142097 233.775751,36.713215 235.345573,38.6419436 C237.897569,41.7773954 230.927744,51.7125389 230.711967,51.9171088 L216.656269,64.5415062 Z" id="Path" fill="#FCA085" fill-rule="nonzero"></path>
                    <g id="Group-30" transform="translate(56.000000, 0.000000)" fill="#2E2C45" fill-rule="nonzero">
                        <path d="M62,57.2630071 C49.7191186,58.3335655 35.951109,58.3335655 20.6959714,57.2630071 C18.3952581,57.1015502 15.6205611,52.182178 11.2707534,51.876922 C10.9146629,51.8519326 10.9146629,53.6472944 11.2707534,57.2630071 C-2.83178516,37.1694984 -4.48695051,32.3858203 11.2707534,14.4001787 C11.2707534,6.44718381 21.4704516,0 34.0524053,0 C43.9082873,0 52.6465199,4.0060992 55.7075025,9.92783709 L62,57.2630071 Z" id="Path"></path>
                        <path d="M70,55.1493506 L48.85,56.4552896 C38.3810726,37.0728278 58.9961571,18.0663087 36.4955159,25.6987244 C22.0396843,17.0880753 30.5478937,34.3336921 26.9532978,55.1493506 L12.3251107,55.1493506 C8.35024729,34.8114083 8.08130037,30.9765721 12.757292,14.4036655 C12.8471424,12.2078716 13.8649556,10.1545178 15.5557406,8.75802742 C16.2811337,8.08984661 17.0668039,7.49073733 17.9026255,6.96842087 C23.0718094,3.70007164 26.5433921,1.83842337 34.0950732,1.83842337 C38.3216262,1.82905068 42.5289417,2.4096666 46.5961129,3.56358585 C47.1249175,3.71904977 47.6477773,3.88588617 48.1527952,4.06028024 C48.8479788,4.29915037 49.5193039,4.56076546 50.1610412,4.84133469 C53.4645715,6.2669658 56.0609572,8.19688096 57.2908979,10.61211 C71.5268564,27.6513845 62.9830203,32.6047388 70,55.1493506 Z" id="Path"></path>
                    </g>
                    <path d="M110,77.0460339 C103.486709,80.2962044 98.6533754,81.5426384 95.5,80.7853359 C92.208931,79.9949654 87.3755977,76.427022 81,70.0815056 C85.816435,60.2162127 86.2130647,49.2390767 83.8999673,37.5803787 L103.619963,37 C104.237878,51.4978995 106.107229,65.0426005 110,77.0460339 Z" id="Path" fill="#FCA085" fill-rule="nonzero"></path>
                    <path d="M115.930153,193.443892 C94.4111673,208.235365 61.602971,196.340521 50,174.300021 C51.6123184,160.813236 79.2511482,144.695414 64.1920533,110.153666 C51.6123184,81.298941 66.2529221,74.5010969 81.7038508,68.6337813 C85.4346169,75.4898274 89.9,78.9178504 95.1,78.9178504 C100.3,78.9178504 104.776539,76.4154549 108.529616,71.4106639 C109.838718,72.4870365 144.26563,75.169884 171.719113,69.3888695 C193.212375,64.8629282 209.467401,53.1872199 210.317056,54.0448347 C210.778907,54.5110121 221.024931,68.5160008 219.916152,69.3888695 C215.431235,72.9195486 197.841792,90.0319075 178.852693,93.9591882 C153.037148,99.2982984 126.644812,95.7981106 127.939522,98.4676764 C133.593407,110.125436 131.586222,117.779817 126.566988,130.346606 L115.930153,193.443892 Z" id="Path" fill="#FFFFFF" fill-rule="nonzero"></path>
                    <path d="M55.8833386,92.1260074 L31.8632213,104.483239 L74.4989267,129.197695 L80.4314028,143.537203 C81.2316239,145.471432 81.1854876,147.642918 80.3038047,149.542835 C79.4221218,151.442751 77.7823819,152.904118 75.7688116,153.584504 C73.4728765,154.360299 70.9387198,154.038258 68.9206831,152.71424 C66.9026464,151.390223 65.6334151,149.216894 65.4908008,146.841187 L64.8908766,136.847401 L13.1122599,117.311578 C9.41278917,116.115275 4.06967542,115.330457 2.75012248,111.738673 C0.797881777,106.424723 2.75134292,100.489187 7.50400419,97.2941383 L52.269956,72.6108036 L55.8833386,92.1260074 Z" id="Path" fill="#FCA085" fill-rule="nonzero"></path>
                    <path d="M80.9999836,94.8449931 C70.7512581,84.9407828 38.0248687,106.714843 35.4736868,106.46004 C33.2311152,106.23606 68.8902922,114.813842 65.7855287,124.192367 C65.1884125,125.996069 65.3732678,137.096913 60.9799138,136.684459 C48.0231364,135.46806 26.0450976,125.604145 22.258494,124.192367 C18.9544555,122.960505 -2.30191807,117.071022 0.985601222,105.432862 C4.27312052,93.7947018 36.4486337,77.9562623 53.9039999,70.2131025 C66.3424942,64.6954153 77.404756,66.726243 81.7038508,68.6337813 L80.9999836,94.8449931 Z" id="Path" fill="#FFFFFF" fill-rule="nonzero"></path>
                    <path d="M100.47481,60.2488078 C111.029978,57.4205591 110.250742,44.8438891 108.275479,34.7588441 C106.300216,24.673799 102.414694,15.1255904 91.7905929,15.1280105 C81.1664922,15.1305433 77.3741264,22.1904058 77.3716213,32.805928 C77.3709451,35.8278029 78.7068326,43.4770776 81.0001719,46.3477559 C87.2022976,54.111242 94.6638303,61.8058551 100.47481,60.2488078 Z" id="Oval" fill="#D77D6A" fill-rule="nonzero" transform="translate(93.424312, 37.789601) rotate(15.000000) translate(-93.424312, -37.789601) "></path>
                    <path d="M99.1714205,57.2273475 C109.795521,57.2247848 114.304871,44.0760723 111.206183,32.5116104 C108.107495,20.9471485 102.598132,13.2925147 91.9740308,13.2949622 C81.3499301,13.2974676 74.8489943,17.6977804 74.8465053,28.3133025 C74.8458129,31.3351775 77.6937539,43.515936 79.7721757,46.6961079 C84.9950266,54.6875384 91.5716367,57.2290327 99.1714205,57.2273475 Z" id="Oval" fill="#FCA085" fill-rule="nonzero" transform="translate(93.506123, 35.261155) rotate(15.000000) translate(-93.506123, -35.261155) "></path>
                    <g id="Group-27" transform="translate(96.000000, 37.000000)" stroke="#D77D6A">
                        <path d="M1.02481043,0 C4.5306486,6.17843139 4.18904512,8.96027694 -4.54747351e-13,8.34553665" id="Path-25"></path>
                    </g>
                    <path d="M108,23.70075 C105.265002,20.0383755 94.4331521,27.9686297 93.8513076,23.70075 C91.6386639,7.47081805 92.1940124,22.4608355 88.3884807,23.70075 C84.7264117,24.8939216 76.1609037,20.6920349 72,23.70075 L72,5.71029621 C86.6255224,-0.615152945 95.1540828,-2.43968383 104.853898,4.12290392 L108,23.70075 Z" id="Path" fill="#2F2E41" fill-rule="nonzero"></path>
                </g>
                <path d="M91.6045737,30.895433 C91.6045737,30.895433 89.6521745,29.5629357 87,30.3571601" id="Stroke-45" stroke="#2F2E41" stroke-width="1.2" stroke-linecap="round" transform="translate(89.302287, 30.500000) rotate(-15.000000) translate(-89.302287, -30.500000) "></path>
                <path d="M93.6045737,48.895433 C93.6045737,48.895433 91.6521745,47.5629357 89,48.3571601" id="Stroke-45" stroke="#2F2E41" stroke-width="1.2" stroke-linecap="round" transform="translate(91.302287, 48.500000) rotate(-150.000000) translate(-91.302287, -48.500000) "></path>
                <path d="M105.929869,27 C105.929869,27 103.571643,28.2102688 104.068869,31.246" id="Stroke-45" stroke="#2F2E41" stroke-width="1.2" stroke-linecap="round" transform="translate(104.964935, 29.123000) scale(-1, 1) rotate(-300.000000) translate(-104.964935, -29.123000) "></path>
            </g>
            <g id="Group-26" transform="translate(123.000000, 141.000000)" stroke="#384B62">
                <path d="M9.09217823,0.37307849 C8.47867368,1.82128646 7.97503112,6.94000964 7.58125056,15.729248 C4.68495279,17.5395088 2.94039417,19.2109592 2.3475747,20.7435993 C1.75475522,22.2762394 1.75475522,25.1150666 2.3475747,29.2600809" id="Path-38" stroke-width="1.3" stroke-linejoin="round"></path>
                <path d="M12.8855673,15.729248 C10.4017704,17.7738034 8.81218723,19.62898 8.11681785,21.294778 C7.42144846,22.960576 7.40321889,25.7554818 8.06212914,29.6794955" id="Path-38" stroke-width="1.3" stroke-linejoin="round" transform="translate(10.233409, 22.704372) scale(-1, 1) translate(-10.233409, -22.704372) "></path>
                <path d="M37.1276341,3.59788204 C36.9875978,4.12083037 36.9450532,10.588203 37,23" id="Path-39" stroke-width="1.3"></path>
                <circle id="Oval" fill="#FFFFFF" cx="2.5" cy="31.5" r="2.5"></circle>
                <circle id="Oval" fill="#FFFFFF" cx="12.5" cy="31.5" r="2.5"></circle>
                <circle id="Oval" cx="37.5" cy="25.5" r="2.5"></circle>
            </g>
            <rect id="Rectangle" stroke="#384B62" x="155" y="182" width="13" height="9.1" rx="1.3"></rect>
            <g id="Group-45" transform="translate(137.000000, 105.000000)" stroke-width="1.3">
                <rect id="Rectangle" stroke="#FFFFFF" stroke-linejoin="round" x="14.3" y="0" width="9.1" height="6.5"></rect>
                <path d="M16.9,2.6 C16.943564,2.65422998 16.9762041,2.69441372 16.9979201,2.72055124 C17.621302,3.47085552 18.2205284,3.86317096 18.7955994,3.89749756 C19.4007201,3.93361786 20.0688536,3.57871706 20.8,2.83279517" id="Path-28" stroke="#2E2C45" transform="translate(18.850000, 3.250000) scale(1, -1) translate(-18.850000, -3.250000) "></path>
                <path d="M2.6,2.6 C3.25861228,3.42887807 3.89047876,3.86137726 4.49559944,3.89749756 C5.10072013,3.93361786 5.76885365,3.57871706 6.5,2.83279517" id="Path-28" stroke="#2E2C45" transform="translate(4.550000, 3.250000) scale(1, -1) translate(-4.550000, -3.250000) "></path>
                <rect id="Rectangle" stroke="#FFFFFF" stroke-linejoin="round" x="1.82076576e-13" y="0" width="9.1" height="6.5"></rect>
                <line x1="9.1" y1="3.9" x2="13.6186332" y2="3.9" id="Path-41" stroke="#FFFFFF"></line>
            </g>
            <path d="M146.5,152.110458 C140.854858,221.889729 140.193303,258.587771 144.515334,262.204586" id="Path-60" stroke="#384B62" stroke-linecap="round"></path>
            <path d="" id="Path-61" stroke="#979797"></path>
            <path d="M178.939522,171.467676 C207.044718,169.935353 217.801913,170.808649 239.907277,162.440503 C262.01264,154.072358 268.65428,139.41261 268.65428,137.333587" id="Path-62" stroke="#384B62" stroke-linecap="round"></path>
        </g>
    </g>
</svg>