<?xml version="1.0" encoding="UTF-8"?>
<svg width="245px" height="257px" viewBox="0 0 245 257" version="1.1" xmlns="http://www.w3.org/2000/svg" xmlns:xlink="http://www.w3.org/1999/xlink">
    <!-- Generator: Sketch 59.1 (86144) - https://sketch.com -->
    <title>Group 56</title>
    <desc>Created with Sketch.</desc>
    <g id="Page-1" stroke="none" stroke-width="1" fill="none" fill-rule="evenodd">
        <g id="Group-56">
            <g id="Group-55">
                <path d="M119.169301,45.0739937 C110.431301,43.6359937 102.258301,39.2189937 94.0113011,35.4839937 C84.9663872,31.3962214 75.5949583,28.0732711 65.9953011,25.5499937 C55.8953011,22.8989937 45.4743011,21.1719937 35.3433011,22.4069937 C25.2123011,23.6419937 15.3283011,28.0849937 8.86630107,36.2079937 C-2.07969893,49.9859937 -1.15669893,70.8709937 2.45930107,89.2789937 C6.74930107,111.118994 14.1673011,132.708994 26.3093011,151.309994 C34.9393011,164.531994 45.7683011,175.977994 56.5013011,187.340994 C62.5683011,193.751994 68.6923011,200.208994 75.7803011,205.249994 C82.3733011,209.933994 89.6523011,213.291994 96.8803011,216.602994 C104.516191,220.26671 112.334395,223.537646 120.304301,226.402994 C145.739301,235.036994 172.515301,234.766994 198.696301,234.002994 C207.910301,233.735994 217.541301,233.294994 225.271301,228.356994 C231.294301,224.496994 235.587301,218.242994 238.838301,211.573994 C243.093301,202.836994 245.780301,192.409994 242.758301,182.665994 C238.304301,168.291994 223.036301,159.824994 217.958301,145.665994 C211.445301,127.502994 224.096301,108.303994 220.516301,89.3969937 C219.027301,81.5309937 214.828301,74.4219937 210.379301,67.7909937 C199.766301,51.9829937 185.659301,37.5829937 166.699301,39.6909937 C150.641301,41.4639937 136.000301,47.8469937 119.169301,45.0739937 Z" id="Path_1372" fill="#EBF1FF" fill-rule="nonzero"></path>
                <g id="Group-66" transform="translate(71.000000, 0.000000)">
                    <line x1="34.4871" y1="103.997" x2="28.4021" y2="120.593" id="Fill-1" fill="#F57E4D"></line>
                    <g id="Group-65" transform="translate(0.000000, 0.756000)">
                        <polygon id="Path-4" fill="#F77E6E" points="51.0144672 71.993921 61.9512 82.1666 70.0502 150.423568 77.438864 95.6951216 77.438864 93.7873916 81.4317464 78.3196677 78.1746857 78.3196677 71.5 79.7728875"></polygon>
                        <path d="M59.6802,79.203 C67.0282,84.752 66.8452,109.524 66.8452,109.524 C66.8452,109.524 74.4072,190.994 71.9682,209.044 C69.5282,227.094 48.9212253,192.728361 30.1477,206.2522 C11.3741747,219.776039 4.35470986,176.199351 1.7002,165.558 C1.7002,165.558 0.0552,151.888 0.0012,140.548 C-0.0898,121.683 10.1942,99.866 17.2732,89.673 C24.3522,79.479 37.6602,73.816 37.6602,73.816 L49.4822,69.906 C49.4822,69.906 52.3322,73.655 59.6802,79.203 Z" id="Fill-2" fill="#FFFFFF"></path>
                        <path d="M76.9541,95.7655 C76.0921,110.2245 56.2328215,234.892769 70.7789083,236.477853 C80.4339442,237.52996 83.1560081,238.082009 78.9451,238.134 L105.044137,238.338289 L98.8461,162.1415 C98.8461,162.1415 97.8001,140.5045 105.2621,151.8365 C110.6321,159.9915 114.2101,158.2135 117.2311,157.3925 C125.2021,155.2305 139.2101,142.2815 140.7751,135.4335 C142.3471,128.5555 141.8171,125.7815 141.8171,125.7815 C141.8171,125.7815 125.4141,114.6955 122.5691,118.8655 C120.6121,121.7355 121.8681,120.6375 121.7901,131.4205 C121.7641,134.9165 115.5471,129.0355 112.2771,125.6995 C111.0151,124.4125 109.9901,122.9245 109.2411,121.2845 L96.6751,93.7595 C96.3431,93.0315 95.5951,92.5875 94.7981,92.6435 C94.7981,92.6435 89.9301,93.9235 88.3821,94.2575 C87.6371,94.4175 86.8761,94.4775 86.1151,94.4365 C84.2671,94.3375 78.9451,93.7605 78.9451,93.7605 C77.8701,93.8365 77.0191,94.6905 76.9541,95.7655 Z" id="Fill-4" fill="#FFFFFF"></path>
                        <path d="M49.144013,68.9287194 C46.9861377,87.7066398 45.9072,97.0956 45.9072,97.0956 C45.9072,97.0956 53.1612,93.9046 56.9452,95.3926 C62.8592,97.7176 56.8862,117.6306 56.8862,117.6306 C56.8862,117.6306 66.6396103,120.283837 67.7882,120.1796" id="Path" stroke="#384B62" stroke-linecap="round" stroke-linejoin="round"></path>
                        <path d="M130.3884,115.9236 L122.4774,114.7736 C120.7474,114.5216 119.7074,112.7186 120.3564,111.0946 L131.8804,82.2536 C132.3484,81.0836 133.5614,80.3916 134.8064,80.5846 L147.1234,82.4986 C148.8844,82.7716 149.9034,84.6436 149.1784,86.2716 L136.6554,114.3496 C136.2204,115.3236 135.2534,115.9516 134.1854,115.9516 L130.7774,115.9516 C130.6474,115.9516 130.5174,115.9426 130.3884,115.9236" id="Fill-8" fill="#2E2C45"></path>
                        <path d="M53.2361,195.1936 L17.0741,228.1076 C15.9721,229.1106 15.8181,230.7896 16.7181,231.9776 L33.8521,254.5686 C34.8711,255.9126 36.8201,256.0966 38.0731,254.9686 L73.0691,223.4496 C74.1301,222.4936 74.3301,220.9036 73.5391,219.7146 L57.5711,195.7276 C56.5941,194.2596 54.5401,194.0066 53.2361,195.1936" id="Fill-10" stroke="#384B62" fill="#FFFFFF"></path>
                        <path d="M49.4822,69.906 C49.7629715,70.1260888 50.1994167,70.6374129 50.7915356,71.4399721 C51.6797141,72.6438111 60.0953,77.4364 69.0953,79.4434 C74.0163,80.5394 77.9823,78.7154 80.5663,76.7024 C87.8753,71.0094 81.1823,58.6224 81.1823,58.6224 L61.9983,52.5774 L49.4822,69.906 Z" id="Fill-27" fill="#FDA186"></path>
                        <path d="M60.6502,55.9465 C60.6502,55.9465 63.6412,62.6625 66.3212,64.2395 C72.9662,68.1495 79.4502,64.9725 79.4502,64.9725 L75.1002,56.9795 L62.3222,53.7715 L60.6502,55.9465 Z" id="Fill-29" fill="#D87E6A"></path>
                        <path d="M62.7478,53.9075 C62.7478,53.9075 80.3128,57.4015 77.4378,62.5385 C74.5638,67.6755 76.1248,71.8575 77.7468,76.4515 C79.3678,81.0455 76.1248,88.0705 77.6108,93.3395 C79.0978,98.6085 87.2348,103.0875 96.5258,92.5505 C99.8778,88.7495 99.1948,63.9125 95.8208,56.4905 C92.4468,49.0685 113.3178,36.1655 102.5678,18.1995 C93.3598,2.8095 83.3898,3.1415 74.0438,4.8095 C67.4598,5.9835 61.7828,9.2895 59.2548,10.8405 C53.9978,14.0685 46.3718,18.1115 43.9988,26.8065 C41.6268,35.5015 40.9732244,30.0596208 38.5998,46.9465 C36.2263756,63.8333792 39.6103237,62.9591437 42.3503237,66.1751437 C45.0893237,69.3901437 47.3388,72.2105 52.6698,68.4955 C58.3998,64.5035 58.7708,68.9775 62.7478,53.9075" id="Fill-31" fill="#2E2C45"></path>
                        <path d="M62.4147017,4.540837 C60.1217017,3.075837 54.2127017,1.536837 51.7047017,2.593837 C50.1847017,3.233837 47.7977017,6.427837 48.0137017,8.063837 C48.2267017,9.676837 50.0957017,13.042837 51.4357017,13.963837 C52.7777017,14.885837 57.0677017,15.637837 58.6767017,15.388837 C61.0137017,15.025837 65.0997017,10.977837 65.2887017,8.619837 C65.3887017,7.376837 63.4667017,5.211837 62.4147017,4.540837" id="Fill-33" fill="#2E2C45"></path>
                        <path d="M52.3832964,0.244 C52.3832964,0.244 43.2652964,1.15 46.8242964,9.265" id="Stroke-47" stroke="#2F2E41" stroke-linecap="round"></path>
                        <path d="M30.1477,206.2522 C30.1477,206.2522 38.4227,220.4922 38.8027,223.4572 C39.1827,226.4212 42.4517,226.7252 41.8437,234.0232 C41.2357,241.3212 39.0307,244.8182 46.1007,237.7482 C46.9507,236.8982 47.7197,236.1452 48.4157,235.4732 C49.1517,234.7612 49.8047,234.1402 50.3827,233.5892 C53.7977,230.3362 54.6147,229.5272 54.6147,226.9532 C54.6147,223.5322 53.8547,214.8662 48.6857,210.8372 C43.5157,206.8082 41.1597,206.5042 40.9317,200.9542 C40.7037,195.4052 30.1477,206.2522 30.1477,206.2522" id="Fill-35" fill="#FDA186"></path>
                        <path d="M45.2161152,238.165552 C45.2161152,238.165552 44.2881152,230.079552 46.2781152,230.246552 L46.0321152,237.352552 L45.2161152,238.165552 Z" id="Fill-39" fill="#384B62"></path>
                        <path d="M51.2123457,233.165552 C51.2123457,233.165552 50.2843457,225.079552 52.2743457,225.246552 L52.0283457,232.352552 L51.2123457,233.165552 Z" id="Fill-39" fill="#384B62"></path>
                        <path d="M48.2142304,235.165552 C48.2142304,235.165552 47.2862304,227.079552 49.2762304,227.246552 L49.0302304,234.352552 L48.2142304,235.165552 Z" id="Fill-39" fill="#384B62"></path>
                        <path d="M67.5007,44.8201 C67.5007,46.7611 69.0747,48.3361 71.0167,48.3361 C72.9577,48.3361 74.5317,46.7611 74.5317,44.8201 C74.5317,42.8791 72.9577,41.3041 71.0167,41.3041 C69.0747,41.3041 67.5007,42.8791 67.5007,44.8201" id="Fill-37" fill="#2F2E41"></path>
                        <path d="M58.1067,45.8074 C61.4217,47.8424 59.6247,48.3034 62.7477,54.6924 C64.8167,58.9244 71.6787,62.2854 74.6997,63.5984 C75.6017,63.9904 76.6327,63.8874 77.4387,63.3234 C80.5437,61.1464 88.3177,55.2164 90.1587,49.2094 C92.4737,41.6564 92.3517,37.8804 92.3517,37.8804 L92.3517,26.0624 C92.3517,26.0624 92.3517,23.0174 90.0367,21.6774 C85.7427,19.7894 82.3627,23.2464 82.3627,23.2464 C82.3627,23.2464 70.3637,31.9094 65.5317,33.4054 C64.6097,33.6904 60.7567,28.5734 56.9087,31.3014 C55.4537,32.3324 54.7957,40.4644 55.3267,42.1314 C55.6757,43.2294 57.1247,45.2044 58.1067,45.8074" id="Fill-41" fill="#FDA186"></path>
                        <path d="M134.0457,121.2068 C134.0457,121.2068 144.0027,104.5048 145.8387,97.3958 C146.4657,94.9698 147.7537,87.3028 146.6287,87.2278 C145.6207,87.1598 144.7687,90.6658 144.3907,92.9238 C143.8267,96.2908 140.9927,100.8158 140.9427,99.0798 C140.9297,98.6228 141.7997,94.4538 142.2387,90.9598 C142.6257,87.8848 142.1757,85.0328 141.3997,84.9688 C140.3937,84.8858 140.0587,87.8408 139.5877,91.0478 C139.0607,94.6438 137.9127,99.8978 137.4967,99.8068 C136.9207,99.6798 137.4587,95.4328 137.6417,92.7578 C137.8417,89.8218 138.2597,87.4638 136.6367,87.6848 C136.3637,87.7218 135.6697,90.3328 135.2987,93.1888 C134.8057,96.9888 134.8757,102.0528 133.2687,100.8808 C132.7577,100.5088 134.1267,92.2478 132.9597,92.2288 C131.5357,92.2068 129.7887,102.8768 129.4317,104.0418 C129.0757,105.2068 126.1867,109.4518 126.1867,111.4728 C126.1867,113.4928 124.1557,117.3078 126.1047,117.9068 C130.2057,119.1678 134.0457,121.2068 134.0457,121.2068" id="Fill-43" fill="#FDA186"></path>
                        <path d="M61.0115,35.0305 C61.0115,35.0305 57.8375,33.9475 59.1505,39.2765" id="Stroke-45" stroke="#2F2E41" stroke-linecap="round"></path>
                        <path d="M79.2374347,32.6635562 C79.2374347,32.6635562 77.3923349,34.1410604 77.3764347,36.9095562" id="Stroke-45" stroke="#2F2E41" stroke-width="1.2" stroke-linecap="round" transform="translate(78.306935, 34.786556) rotate(73.000000) translate(-78.306935, -34.786556) "></path>
                        <path d="M90.9418339,36.2797585 C90.9418339,36.2797585 88.5836071,37.4900273 89.0808339,40.5257585" id="Stroke-45" stroke="#2F2E41" stroke-width="1.2" stroke-linecap="round" transform="translate(89.976899, 38.402759) scale(-1, 1) rotate(37.000000) translate(-89.976899, -38.402759) "></path>
                        <path d="M76.1048,52.5901 C76.9608,52.9061 79.9248,53.6811 81.0498,53.7981 C82.2458,53.9231 77.1028,56.9771 76.1048,56.2151 C75.4448,55.7121 75.4528,52.3491 76.1048,52.5901" id="Fill-49" fill="#FBFBFB"></path>
                        <path d="M67.1716,43.9739 C67.4346,43.0359 69.2786,43.0829 69.9406,43.2579 C70.5606,43.4219 72.1036,44.2449 71.9766,45.1539 C71.8386,46.1429 69.9066,46.7119 69.2266,46.5569 C68.5186,46.3959 66.8916,44.9719 67.1716,43.9739" id="Fill-51" fill="#EB7279"></path>
                        <path d="M32.6673,178.7976 C32.6673,178.7976 23.3983,166.5766 29.5313,142.0066 C36.8953,112.5036 38.1375537,112.56709 38.1375537,112.56709" id="Stroke-53" stroke="#384B62" stroke-linecap="round"></path>
                        <path d="M76.9769817,41.9781693 C77.7619002,42.1319914 78.393477,41.5881504 78.6316415,40.9088488 C79.0144973,39.8168069 78.7878165,38.8153191 78.0041785,38.6624523 C77.2179796,38.5086302 76.6455304,39.4774214 76.4073659,40.1557676 C76.2825669,40.983038 76.1907828,41.8253025 76.9769817,41.9781693 Z" id="Fill-55" fill="#2F2E41"></path>
                        <path d="M87.0418,42.5686 C86.7758,43.2536 86.9418,44.2456 87.5328,44.4746 C88.1238,44.7046 88.8728,44.0686 89.1388,43.3836 C89.5668,42.2826 89.2818,41.7226 88.6908,41.4936 C88.0998,41.2636 87.3078,41.8836 87.0418,42.5686" id="Fill-61" fill="#2F2E41"></path>
                        <path d="M79.6472,49.2146 C79.6472,49.2146 85.3895997,51.6127203 84.5012,47.7226 C83.5865544,43.7175544 83.3582,43.0035979 83.3582,43.0035979" id="Stroke-63" stroke="#E58670" stroke-linecap="round"></path>
                    </g>
                </g>
                <path d="M75.2841289,100 C61.6108067,122.535598 58.4929229,146.897416 65.9304777,173.085455" id="Path-16" stroke="#384B62" stroke-linecap="round"></path>
                <path d="M141.233251,148.696632 C138.617211,167.118816 136.358789,174.209887 136.469176,182.875292 C136.542768,188.652229 138.870623,194.876552 143.452743,201.548261" id="Path" stroke="#384B62" stroke-linecap="round"></path>
                <ellipse id="Oval" stroke="#384B62" cx="140.5" cy="182" rx="1.5" ry="2"></ellipse>
                <path d="M176.977582,154.07379 C184.403154,161.234333 193.49901,158.960705 204.265149,147.252906" id="Path-18" stroke="#384B62" stroke-linecap="round"></path>
            </g>
        </g>
    </g>
</svg>