<?xml version="1.0" encoding="UTF-8"?>
<svg width="300px" height="232px" viewBox="0 0 300 232" version="1.1" xmlns="http://www.w3.org/2000/svg" xmlns:xlink="http://www.w3.org/1999/xlink">
    <!-- Generator: Sketch 59.1 (86144) - https://sketch.com -->
    <title>Group 39@2x</title>
    <desc>Created with Sketch.</desc>
    <g id="Page-1" stroke="none" stroke-width="1" fill="none" fill-rule="evenodd">
        <g id="Group-39" transform="translate(-16.000000, -43.000000)">
            <g id="Group-32">
                <path d="M162.927413,82.8738126 C153.475068,81.323076 144.633912,76.5597911 135.712707,72.5319738 C125.928357,68.1237274 115.790799,64.5402638 105.406354,61.8191659 C94.4806633,58.9603322 83.20773,57.0979385 72.2485046,58.4297603 C61.2892793,59.7615821 50.5972466,64.5529054 43.6069678,73.3127341 C31.7661149,88.1709046 32.7645717,110.693251 36.6761854,130.544406 C41.3168997,154.096623 49.341333,177.37924 62.4759608,197.438525 C71.811477,211.697106 92.575138,222.313824 104.185578,234.567663 C110.748565,241.481274 158.916368,268.81115 167.537827,271.901136 C195.052178,281.212026 220.634534,287.438405 248.955872,286.614509 C258.923131,286.326576 269.341481,285.851003 277.70342,280.525872 C284.21881,276.363255 288.86277,269.618953 292.379544,262.427115 C296.982397,253.00515 299.889064,241.760692 296.62001,231.25278 C291.801889,215.751884 275.285706,206.621086 269.792571,191.352046 C262.747123,171.765099 276.432362,151.060932 272.559692,130.671657 C270.948963,122.188976 266.406689,114.522643 261.593976,107.371785 C250.113346,90.3244659 234.853076,74.7955316 214.343066,77.068795 C196.972299,78.9807951 181.134374,85.8642109 162.927413,82.8738126 Z" id="Path_1372" fill="#EBF1FF" fill-rule="nonzero" transform="translate(166.015833, 172.339195) rotate(-60.000000) translate(-166.015833, -172.339195) "></path>
                <g id="undraw_dev_productivity_umsq" transform="translate(36.000000, 43.000000)">
                    <path d="M111.262071,47 C111.262071,47 115.990572,82.636393 108.715959,86.636363 C101.441346,90.6363329 150.422123,91 150.422123,91 C150.422123,91 140.724329,60.0909077 145.816554,50.6363437 L111.262071,47 Z" id="Path" fill="#FCA085" fill-rule="nonzero"></path>
                    <path d="M129.5,72 C141.926407,72 152,51.8071187 152,38 C152,24.1928813 141.926407,13 129.5,13 C117.073593,13 107,24.1928813 107,38 C107,51.8071187 117.073593,72 129.5,72 Z" id="Oval" fill="#D77D6A" fill-rule="nonzero"></path>
                    <path d="M130,69 C143.807119,69 155,48.8071187 155,35 C155,21.1928813 143.807119,10 130,10 C116.192881,10 105,21.1928813 105,35 C105,48.8071187 116.192881,69 130,69 Z" id="Oval" fill="#FCA085" fill-rule="nonzero"></path>
                    <path d="M188,91.6206077 L183.816389,110.613628 L174.970361,150.796899 L174.70549,152.997516 L171.652676,178.473893 L169.621995,195.398333 L168.260284,206.76706 C159.981353,211.009173 153.980996,213.937687 153.980996,213.937687 C153.980996,213.937687 153.464836,211.357887 152.632868,208.056961 C146.822674,209.793756 136.071609,212.674872 126.96071,213.250418 C130.278395,216.937298 131.803104,220.400731 129.735069,222.956833 C123.493611,230.662379 97.726371,214.520004 88.7139495,208.50047 C88.5041315,209.941727 88.4245768,211.398859 88.4762444,212.854306 L81.5793989,207.566054 L82.2619523,195.398333 L83.4131244,174.810712 L84.8597301,148.992393 C84.4035848,147.886882 84.02129,146.752498 83.7153496,145.596671 C81.6031694,138.107801 79.0393494,123.153761 77.0731882,110.613628 C75.4907509,100.521258 74.3022251,91.9930199 74.0509368,90.178357 C74.0169789,89.9413675 74,89.8194871 74,89.8194871 L112.178845,73 C114.892079,79.273452 127,90.178357 127,90.178357 C137.429831,82.7071316 146.286157,74.9196154 146.286157,74.9196154 L188,91.6206077 Z" id="Path" fill="#FFFFFF" fill-rule="nonzero"></path>
                    <polygon id="Path-24" stroke="#2E2C45" fill="#2E2C45" stroke-linejoin="round" points="113.03906 199.191248 113.03906 168.748812 135.03906 168.748812 135.03906 196.155627 135.03906 208.5 113.03906 208.5"></polygon>
                    <path d="M157,206.449408 C157,206.449408 155.375368,206.994512 152.733633,207.767023 C146.89383,209.482597 136.087977,212.328512 126.930647,212.897026 C119.046401,213.391967 112.384043,212.201432 111.165568,207.161722 C110.643365,204.994681 111.384006,203.212222 112.998399,201.747462 C117.817687,197.369905 130.405176,195.801475 140.388474,195.263059 C143.207689,195.11257 145.815293,195.042341 147.98602,195.015588 C151.672161,194.968769 154.088631,195.042341 154.088631,195.042341 L154.146654,195.263059 L157,206.449408 Z" id="Path" fill="#FCA085" fill-rule="nonzero"></path>
                    <path d="M109.572748,11.368987 L104.930347,9.52438264 C104.930347,9.52438264 117.962267,-0.951698401 131,0.978521756 C136.425551,1.7817679 145.038543,2.95043337 149.380845,6.88780429 C153.922794,11.0062039 155.612987,15.455362 156.792108,24.0348417 C157.971229,32.6143213 156.140812,40.063144 154.157405,41.6428408 C154.157405,41.6428408 153.697329,37.8748172 152,37.5324488 C150.786776,37.2877293 151.637562,40.7973858 150.393674,39.5 C149.367437,38.4296246 146.645088,32.9446705 145.556939,32.1207579 C141.025089,28.6893828 136.58337,28.2064684 137,24.0348417 C137.780153,16.2233452 109.7622,29.8442469 109.572759,32.1207579 C109.150776,37.1933703 105.938957,42 105.938957,42 C105.938957,42 97.33371,18.2862104 109.572748,11.368987 Z" id="Path" fill="#2F2E41" fill-rule="nonzero"></path>
                    <path d="M215.644259,178.804617 C213.105143,181.569044 206.81329,185.732708 199.185773,190.240223 C196.348337,191.91522 193.32784,193.641285 190.246324,195.357137 C182.893398,199.452711 175.194691,203.510836 168.841817,206.789338 C160.576979,211.055136 154.586836,214 154.586836,214 C154.586836,214 154.071555,211.405796 153.241004,208.08644 C152.129081,203.64361 150.454417,197.900274 148.708564,195.357137 C148.647544,195.268621 148.586523,195.186914 148.525503,195.105206 C148.017002,194.434526 147.505111,194.043013 147,194.043013 L172.228435,178.338205 L183.130698,171.549697 L175.276051,152.719588 L165.42469,129.099394 L171.370763,110.099062 L177.347346,91 L188.54793,91 C188.54793,91 192.256598,99.129868 196.999218,110.466761 C197.70773,112.162186 198.439971,113.929104 199.185773,115.753899 C208.942211,139.58515 221.105557,172.863818 215.644259,178.804617 Z" id="Path" fill="#FFFFFF" fill-rule="nonzero"></path>
                    <path d="M130.060791,222.961273 C123.832232,230.650073 98.1182426,214.542779 89.1244462,208.536326 C87.165737,207.22896 86,206.401299 86,206.401299 L94.2279343,195.462663 L96.8338986,192 C96.8338986,192 99.1653726,193.233046 102.611752,195.239701 C102.737137,195.314022 102.862521,195.388342 102.991294,195.462663 C105.963246,197.20244 109.694282,199.475973 113.459206,202.013007 C118.654191,205.516209 123.906785,209.512628 127.292166,213.275952 C130.603008,216.954809 132.124563,220.410709 130.060791,222.961273 Z" id="Path" fill="#FCA085" fill-rule="nonzero"></path>
                    <path d="M102,195.273879 C101.087564,195.270339 100.176489,195.345289 99.2766564,195.497916 C91.5470675,196.838747 89.267528,203.902718 88.6186325,208.634663 C88.4108927,210.079727 88.3321261,211.540708 88.3832819,213 L81.5547499,207.697778 L79.0667569,205.766303 C73.0787631,203.658314 67.7430269,199.914171 63.1167049,195.497916 C59.1032791,191.598968 55.5031496,187.288432 52.3746272,182.636125 C49.2585124,178.050735 46.4806075,173.240191 44.0633859,168.243411 C42.6979645,165.420523 42.6449985,162.131144 43.9188133,159.264937 L52.3746272,140.238719 L64.7339003,112.430909 C64.8246649,111.768998 64.9244032,111.121779 65.033115,110.489251 C67.4841243,96.300207 74.0504084,90 74.0504084,90 L79.0667401,90 L82.4221684,110.489251 L86.5912377,135.944667 L83.6695271,145.564703 L76.9183246,167.781741 L83.3702955,174.855896 L102,195.273879 Z" id="Path" fill="#FFFFFF" fill-rule="nonzero"></path>
                    <g id="Group-25" transform="translate(0.000000, 19.000000)" fill-rule="nonzero">
                        <path d="M24.8355747,0.232077248 C13.7667725,1.68541383 4.55800692,9.45192256 1.2580772,20.1169183 C0.523117295,22.4970539 0.106916836,24.9641162 0.0203514929,27.4536389 C0.00815888607,27.7997006 0,28.1498639 0,28.5 C0.0157269404,44.2335964 12.7663406,56.984273 28.4998595,57 C29.1064959,57 29.7131322,56.9796484 30.3116402,56.9429925 C31.7165449,56.8548516 33.1128741,56.661599 34.4889086,56.3648569 C48.0554285,53.4474524 57.5495198,41.1838656 56.9752971,27.3190254 C56.4010743,13.4541853 45.9254254,2.01766848 32.1641273,0.232077248 C29.7310642,-0.0773590825 27.2686209,-0.0773590825 24.8355747,0.232077248 Z" id="Shape" stroke="#2E2C45" fill="#FFFFFF"></path>
                        <rect id="Rectangle" fill="#3F3D56" x="28" y="2" width="1" height="6"></rect>
                        <polygon id="Rectangle" fill="#3F3D56" transform="translate(12.353718, 12.031064) rotate(-45.000000) translate(-12.353718, -12.031064) " points="11.9458301 9.17710804 12.7612402 9.17716037 12.7616065 14.8850207 11.9461965 14.8849684"></polygon>
                        <polygon id="Rectangle" fill="#3F3D56" transform="translate(5.500000, 28.000000) rotate(-90.000000) translate(-5.500000, -28.000000) " points="5.12379421 25 5.87620579 25 5.87620579 31 5.12379421 31"></polygon>
                        <polygon id="Rectangle" fill="#3F3D56" transform="translate(12.353719, 44.894063) rotate(-135.000000) translate(-12.353719, -44.894063) " points="11.9461975 42.0401594 12.7616076 42.0401071 12.7612413 47.7479674 11.9458312 47.7480197"></polygon>
                        <polygon id="Rectangle" fill="#3F3D56" transform="translate(45.220937, 12.031063) rotate(-135.000000) translate(-45.220937, -12.031063) " points="44.813415 9.17715872 45.628825 9.17710639 45.6284587 14.8849667 44.8130486 14.885019"></polygon>
                        <polygon id="Rectangle" fill="#3F3D56" transform="translate(52.500000, 28.000000) rotate(-90.000000) translate(-52.500000, -28.000000) " points="52.1237942 25 52.8762058 25 52.8762058 31 52.1237942 31"></polygon>
                        <polygon id="Rectangle" fill="#3F3D56" transform="translate(45.220939, 44.894065) rotate(-45.000000) translate(-45.220939, -44.894065) " points="44.813051 42.0401087 45.6284611 42.0401611 45.6288274 47.7480214 44.8134173 47.7479691"></polygon>
                        <rect id="Rectangle" fill="#3F3D56" x="29" y="49" width="1" height="6"></rect>
                        <path d="M30.2000055,26.3999518 C29.4890375,25.8666827 28.5114548,25.8666827 27.8004867,26.3999518 C27.5635412,26.579953 27.3684357,26.8091906 27.2286151,27.0718681 C26.7354915,28.0133645 27.0648603,29.1761472 27.978471,29.7191117 C28.8920817,30.2620763 30.0707711,29.9955421 30.6619288,29.112308 C31.2530865,28.2290738 31.0501959,27.037691 30.2000188,26.3999518 L30.2000055,26.3999518 Z M29.0002461,29.1996079 C28.3384427,29.1976675 27.802427,28.6616104 27.8004867,27.9997558 C27.802036,27.7570892 27.8758298,27.5203842 28.0124551,27.3198347 C28.3359509,26.8512872 28.9443929,26.6749854 29.468246,26.8980056 C29.9920991,27.1210257 30.2867866,27.6818172 30.1733311,28.2397852 C30.0598757,28.7977532 29.5695895,29.1989059 29.0002461,29.1996079 L29.0002461,29.1996079 Z" id="Shape" fill="#3F3D56"></path>
                        <rect id="Rectangle" fill="#3F3D56" x="28" y="13" width="2" height="12"></rect>
                    </g>
                </g>
                <g id="Group-27" transform="translate(152.000000, 81.000000)">
                    <circle id="Oval" stroke="#FFFFFF" cx="5" cy="5" r="5"></circle>
                    <circle id="Oval" stroke="#FFFFFF" cx="23" cy="5" r="5"></circle>
                    <path d="M13.1132678,8 C16.9217151,14.7427293 16.5506259,17.7786506 12,17.107764" id="Path-25" stroke="#D77D6A"></path>
                    <polygon id="Path-26" stroke="#FFFFFF" fill="#FFFFFF" stroke-linejoin="round" points="11 22 16.5235574 22 13.972122 23.8394756"></polygon>
                    <line x1="10" y1="5" x2="17.7159973" y2="5" id="Path-27" stroke="#FFFFFF"></line>
                    <path d="M20,5 C21.0423282,6.14558062 22.0423282,6.74333161 23,6.79325296 C23.9576718,6.84317432 25.0150684,6.35267096 26.17219,5.32174289" id="Path-28" stroke="#2E2C45"></path>
                    <path d="M2,5 C3.04232824,6.14558062 4.04232824,6.74333161 5,6.79325296 C5.95767176,6.84317432 7.01506844,6.35267096 8.17219005,5.32174289" id="Path-28" stroke="#2E2C45"></path>
                </g>
                <path d="" id="Path-29" stroke="#979797"></path>
                <path d="M166.603916,130.529655 C167.806212,132.182418 172.104907,135.172533 179.5,139.5 C180.952644,126.845988 182.03702,119.710624 182.75313,118.093909" id="Path-30" stroke="#384B62" stroke-linejoin="round"></path>
                <path d="M145.786157,130.578972 C147.79156,132.59879 152.603442,135.599261 160.221802,139.580385 L157.829114,116.5" id="Path-30" stroke="#384B62" stroke-linejoin="round" transform="translate(153.003980, 128.040192) scale(-1, 1) translate(-153.003980, -128.040192) "></path>
                <path d="M203.855962,156 C205.512194,163.064709 206.436838,168.992936 206.629892,173.784682 C206.822947,178.576428 208.190438,185.481534 210.732365,194.5 L219.130698,214.549697" id="Path-31" stroke="#384B62" stroke-linecap="round"></path>
                <path d="M147.464811,116.861055 L110,132.819487 C103.692207,145.668486 98.118862,157.927976 93.2799653,169.597957 C88.5486613,181.008456 80,204.179515 79.5,206.376427 C79,208.573338 78.9876487,218.491218 95.4195534,233.88096 C106.374157,244.140788 116.028733,251.513801 124.383282,256 L124.383282,251.5" id="Path-32" stroke="#384B62" stroke-linecap="round" stroke-linejoin="round"></path>
                <circle id="Oval" fill="#384B62" cx="163" cy="136" r="1"></circle>
            </g>
            <line x1="154.183448" y1="263.441049" x2="163.854071" y2="266.727655" id="Path-33" stroke="#384B62" stroke-linecap="round"></line>
            <line x1="157.79535" y1="261.215431" x2="166.476959" y2="264.498563" id="Path-33" stroke="#384B62" stroke-linecap="round"></line>
            <line x1="159.725115" y1="258.221438" x2="166.725115" y2="260.677313" id="Path-33" stroke="#384B62" stroke-linecap="round"></line>
        </g>
    </g>
</svg>